<svg xmlns="http://www.w3.org/2000/svg" viewBox="0 0 1850.68 549.58"><defs><style>.cls-1{fill:#170c66;}.cls-2,.cls-3,.cls-6{fill:none;stroke-miterlimit:10;}.cls-2{stroke:#170c66;stroke-width:3px;}.cls-3{stroke:#fff;}.cls-3,.cls-6{stroke-width:2px;}.cls-4{fill:#10245e;}.cls-5{fill:#fff;}.cls-6{stroke:#10245e;}</style></defs><title>npp_logo</title><g id="&#x421;&#x43B;&#x43E;&#x439;_2" data-name="&#x421;&#x43B;&#x43E;&#x439; 2"><g id="&#x421;&#x43B;&#x43E;&#x439;_1-2" data-name="&#x421;&#x43B;&#x43E;&#x439; 1"><path class="cls-1" d="M28.4,404.86c.49-1.41-1-2.81-.51-4.2,2.45-7.1,6.81-14.07,9.22-21q4.76-13.77,9.52-27.53a4,4,0,0,0,.43-2.06c-.15-.48-.72-.72-1.93-1.19L8.21,334.61c-.82-.32-1.63-.66-2.42-1V319.69l5.42-.54c2.3-.23,2.35-.29,1.68-2.61Q9,303.09,5.09,289.65q-1.52-5.23-3-10.46c-.14-.49-.22-1-.35-1.64.72-.31,1.38-.61,2.05-.87Q52,257.87,100.27,239a3.38,3.38,0,0,1,3.65.41c4.21,3,8.55,5.89,12.76,8.92a3.11,3.11,0,0,0,4,.2Q145.3,233.62,170,218.84a6.85,6.85,0,0,0,2.6-3.18l57.09-115.42c.39-.79.81-1.58,1.35-2.64,15.58,5.92,31.07,11.92,46.77,18-.34.91-.6,1.66-.89,2.4L201,307.13l-14.09,35.07a5.67,5.67,0,0,1-.79,1.82c-1.27,1.32-.74,2.63-.28,4.05q8.21,25.62,16.37,51.26c.18.56.34,1.13.57,1.91-.85.63-1.69,1.33-2.6,1.92A91.83,91.83,0,0,1,173,414.71a148.9,148.9,0,0,1-24.11,3.9,382.05,382.05,0,0,1-38.43,1.77c-16.63-.1-33.19-1.31-49.5-4.78a170.88,170.88,0,0,1-30.87-9.86c-.53-.23-1-.53-1.73-.88m139.54-94.52a38.11,38.11,0,1,0-38-38.31,38,38,0,0,0,38,38.31"></path><path class="cls-2" d="M28.4,404.86c.49-1.41-1-2.81-.51-4.2,2.45-7.1,6.81-14.07,9.22-21q4.76-13.77,9.52-27.53a4,4,0,0,0,.43-2.06c-.15-.48-.72-.72-1.93-1.19L8.21,334.61c-.82-.32-1.63-.66-2.42-1V319.69l5.42-.54c2.3-.23,2.35-.29,1.68-2.61Q9,303.09,5.09,289.65q-1.52-5.23-3-10.46c-.14-.49-.22-1-.35-1.64.72-.31,1.38-.61,2.05-.87Q52,257.87,100.27,239a3.38,3.38,0,0,1,3.65.41c4.21,3,8.55,5.89,12.76,8.92a3.11,3.11,0,0,0,4,.2Q145.3,233.62,170,218.84a6.85,6.85,0,0,0,2.6-3.18l57.09-115.42c.39-.79.81-1.58,1.35-2.64,15.58,5.92,31.07,11.92,46.77,18-.34.91-.6,1.66-.89,2.4L201,307.13l-14.09,35.07a5.67,5.67,0,0,1-.79,1.82c-1.27,1.32-.74,2.63-.28,4.05q8.21,25.62,16.37,51.26c.18.56.34,1.13.57,1.91-.85.63-1.69,1.33-2.6,1.92A91.83,91.83,0,0,1,173,414.71a148.9,148.9,0,0,1-24.11,3.9,382.05,382.05,0,0,1-38.43,1.77c-16.63-.1-33.19-1.31-49.5-4.78a170.88,170.88,0,0,1-30.87-9.86C29.6,405.52,29.1,405.21,28.4,404.86Zm139.54-94.52a38.11,38.11,0,1,0-38-38.31A38,38,0,0,0,167.94,310.34Z"></path><path class="cls-1" d="M212.71,89.48c3.44-6,6.7-11.61,10-17.26a5.42,5.42,0,0,0-.18-6.08L221.76,65c3.5.21,5.23-1.76,6.67-4.41,2.37-4.36,4.94-8.62,7.42-12.92,1.59-2.75,1.68-3.28,1.07-6.44a2.89,2.89,0,0,1,.75-.23,5.47,5.47,0,0,0,4.81-3.07c3.32-5.77,6.64-11.54,10.09-17.54l126.27,91.91-18.29,34L212.71,89.48M291.5,68.62a30.79,30.79,0,0,0-1.84-11.24c-4-10.34-11.25-17.08-22.25-18.94-10.55-1.79-19.47,1.8-26.34,10A30.39,30.39,0,0,0,241.91,88a27.94,27.94,0,0,0,41,.88,29.39,29.39,0,0,0,8.61-20.28"></path><path class="cls-2" d="M212.71,89.48c3.44-6,6.7-11.61,10-17.26a5.42,5.42,0,0,0-.18-6.08L221.76,65c3.5.21,5.23-1.76,6.67-4.41,2.37-4.36,4.94-8.62,7.42-12.92,1.59-2.75,1.68-3.28,1.07-6.44a2.89,2.89,0,0,1,.75-.23,5.47,5.47,0,0,0,4.81-3.07c3.32-5.77,6.64-11.54,10.09-17.54l126.27,91.91-18.29,34ZM291.5,68.62a30.79,30.79,0,0,0-1.84-11.24c-4-10.34-11.25-17.08-22.25-18.94-10.55-1.79-19.47,1.8-26.34,10A30.39,30.39,0,0,0,241.91,88a27.94,27.94,0,0,0,41,.88A29.39,29.39,0,0,0,291.5,68.62Z"></path><path class="cls-1" d="M483.37,219.28c-2.78-12.86-7.9-24-16.39-33.39a13.05,13.05,0,0,0-3-2.46c.41,1.64,1.86,2.44,2.79,3.63s2,2.38,2.94,3.63,1.91,2.65,2.78,4,1.7,2.79,2.48,4.22,1.44,2.76,2.09,4.17,1.32,3,1.9,4.5,1.11,3.06,1.59,4.62.85,3,1.2,4.51.64,3.14,1,4.76c1.26-.19,1.3-1.13,1.59-1.81q4.43-10.56,8.81-21.13l5-12.08,7.28.93-17.3,40.33c-3-.74-5.89-1.49-8.76-2.13-1.17-.26-1.25-1.09-1.4-2a68.56,68.56,0,0,0-8.64-23,59.26,59.26,0,0,0-8.22-11,14.26,14.26,0,0,0-4.5-3.17q-45.52-20.7-91-41.44c-.79-.36-1.57-.74-2.55-1.2l15-27.95c.83.38,1.55.68,2.25,1q45.44,22.43,90.89,44.84c4.6,2.26,9.18,4.48,13.25,7.65a44.34,44.34,0,0,1,8.12,7.87c1.12,1.47,2.09,3.05,3.08,4.62a7.11,7.11,0,0,1,.41,7.29c-4,9.08-7.69,18.3-11.51,27.46-.3.72-.63,1.43-1.17,2.65"></path><path class="cls-3" d="M483.37,219.28c-2.78-12.86-7.9-24-16.39-33.39a13.05,13.05,0,0,0-3-2.46c.41,1.64,1.86,2.44,2.79,3.63s2,2.38,2.94,3.63,1.91,2.65,2.78,4,1.7,2.79,2.48,4.22,1.44,2.76,2.09,4.17,1.32,3,1.9,4.5,1.11,3.06,1.59,4.62.85,3,1.2,4.51.64,3.14,1,4.76c1.26-.19,1.3-1.13,1.59-1.81q4.43-10.56,8.81-21.13l5-12.08,7.28.93-17.3,40.33c-3-.74-5.89-1.49-8.76-2.13-1.17-.26-1.25-1.09-1.4-2a68.56,68.56,0,0,0-8.64-23,59.26,59.26,0,0,0-8.22-11,14.26,14.26,0,0,0-4.5-3.17q-45.52-20.7-91-41.44c-.79-.36-1.57-.74-2.55-1.2l15-27.95c.83.38,1.55.68,2.25,1q45.44,22.43,90.89,44.84c4.6,2.26,9.18,4.48,13.25,7.65a44.34,44.34,0,0,1,8.12,7.87c1.12,1.47,2.09,3.05,3.08,4.62a7.11,7.11,0,0,1,.41,7.29c-4,9.08-7.69,18.3-11.51,27.46C484.24,217.35,483.91,218.06,483.37,219.28Z"></path><path class="cls-1" d="M222.53,69.77a10.73,10.73,0,0,1-.75,2c-2.93,5.15-5.87,10.29-8.87,15.39-1.51,2.55-3.86,3.15-6.47,1.66q-12-6.89-24-13.88c-2.74-1.59-3.32-3.8-1.75-6.58q4.32-7.63,8.77-15.19c1.57-2.68,3.86-3.28,6.59-1.71,8,4.56,15.9,9.17,23.86,13.74a4.88,4.88,0,0,1,2.66,4.58"></path><path class="cls-3" d="M222.53,69.77a10.73,10.73,0,0,1-.75,2c-2.93,5.15-5.87,10.29-8.87,15.39-1.51,2.55-3.86,3.15-6.47,1.66q-12-6.89-24-13.88c-2.74-1.59-3.32-3.8-1.75-6.58q4.32-7.63,8.77-15.19c1.57-2.68,3.86-3.28,6.59-1.71,8,4.56,15.9,9.17,23.86,13.74A4.88,4.88,0,0,1,222.53,69.77Z"></path><path class="cls-1" d="M222.46,64.07a13.54,13.54,0,0,1-2.18-.84q-12.14-7-24.24-14c-2.52-1.47-3.14-3.72-1.71-6.26q4.41-7.84,9-15.58c1.53-2.59,3.77-3.1,6.44-1.57q10.4,6,20.77,12c1.15.67,2.33,1.3,3.46,2,2.32,1.45,3,3.75,1.71,6.11-3,5.29-6.05,10.52-9.09,15.78a4.8,4.8,0,0,1-4.14,2.35"></path><path class="cls-3" d="M222.46,64.07a13.54,13.54,0,0,1-2.18-.84q-12.14-7-24.24-14c-2.52-1.47-3.14-3.72-1.71-6.26q4.41-7.84,9-15.58c1.53-2.59,3.77-3.1,6.44-1.57q10.4,6,20.77,12c1.15.67,2.33,1.3,3.46,2,2.32,1.45,3,3.75,1.71,6.11-3,5.29-6.05,10.52-9.09,15.78A4.8,4.8,0,0,1,222.46,64.07Z"></path><path class="cls-1" d="M222.42,1a14.1,14.1,0,0,1,2.15.86q12,6.9,24,13.87c2.65,1.54,3.24,3.93,1.7,6.63q-4.28,7.53-8.66,15c-1.65,2.82-3.93,3.41-6.73,1.8q-11.83-6.81-23.64-13.66c-3.09-1.79-3.63-3.88-1.82-7,2.79-4.89,5.64-9.73,8.42-14.63A5,5,0,0,1,222.42,1"></path><path class="cls-3" d="M222.42,1a14.1,14.1,0,0,1,2.15.86q12,6.9,24,13.87c2.65,1.54,3.24,3.93,1.7,6.63q-4.28,7.53-8.66,15c-1.65,2.82-3.93,3.41-6.73,1.8q-11.83-6.81-23.64-13.66c-3.09-1.79-3.63-3.88-1.82-7,2.79-4.89,5.64-9.73,8.42-14.63A5,5,0,0,1,222.42,1Z"></path><path class="cls-4" d="M489,228.23l17.42-40.6,14.36,6.17-17.41,40.59L489,228.23"></path><path class="cls-4" d="M494.13,242.7l-10.91-4.4c.86-2.55,1.79-4.74,2.82-7.07l9.7,3.89c.72.29,1.1.8.81,1.56-.74,1.91-1.53,3.81-2.42,6"></path><path class="cls-4" d="M510.73,220.72l4.7-10.94,3.61,1.48c-1.42,3.73-3.07,7.22-4.63,11l-3.67-1.55"></path><path class="cls-4" d="M482.95,253.39l2.52-12.87,5,2-7.14,11-.39-.16"></path><path class="cls-4" d="M481.4,227.39c7.07.87,13.06,4.53,19.46,7.18a5.56,5.56,0,0,1-4.51-.12,42.77,42.77,0,0,0-9.47-3.76c-2.37-.56-3.69-2.15-5.48-3.3"></path><path class="cls-4" d="M102.66,421.18c1,.07,1.9.21,2.86.21,4.65,0,9.31,0,14,.24-.64,0-1.28.1-1.92.1-4.21,0-8.43,0-12.64,0a10.69,10.69,0,0,1-2.28-.52Z"></path><path class="cls-4" d="M132.27,420.71a4.31,4.31,0,0,1-1.37.54A72.24,72.24,0,0,1,122,421c2.53,0,5.06,0,7.59,0,.88,0,1.76-.15,2.63-.23h0"></path><path class="cls-4" d="M102.67,421.17h0"></path><path class="cls-4" d="M139.82,420.25c-.29.19-.57.54-.86.54-2.23,0-4.46,0-6.69-.07h0l7.55-.47h0"></path><path class="cls-4" d="M87.55,420.25l4.45.46c-2.17.4-3.24.29-4.43-.46h0"></path><path class="cls-4" d="M145.61,419.79c-.28.2-.56.57-.84.57-1.65,0-3.29-.06-4.95-.11h0l5.8-.45h0"></path><path class="cls-4" d="M82.59,419.84l4.95.42h0c-1.36,0-2.72.14-4.09.12-.28,0-.56-.37-.85-.56l0,0"></path><path class="cls-4" d="M150,419.36c-.37.93-1.2.61-1.86.63a23.58,23.58,0,0,1-2.56-.19h0l4.41-.44h0"></path><path class="cls-4" d="M154,418.92c-.28.89-1.05.62-1.64.63a23,23,0,0,1-2.36-.19h0l4-.44Z"></path><path class="cls-4" d="M78.6,419.38l4,.46.06,0c-1.35.13-2.77.75-4-.46l0,0"></path><path class="cls-4" d="M502,236.11l-2.29.15c0-.11,0-.22,0-.33l2.29-.11,0,.28"></path><path class="cls-4" d="M154,418.92l3.18-.17c0,.13,0,.25,0,.38l-3.18-.21h0"></path><path class="cls-4" d="M75.06,418.92l3.53.47.06,0c-1.22.2-2.49.68-3.55-.46Z"></path><path class="cls-4" d="M161.29,418.44l2-.74.11.39-2.19.32Z"></path><path class="cls-4" d="M75.09,418.9c-1.09.21-2.23.74-3.13-.43l0,0,3.13.43,0,0"></path><path class="cls-4" d="M68.73,418.47l-1.85-.4.12-.32,1.69.75Z"></path><path class="cls-4" d="M68.7,418.5h3.2l.06,0H68.74l0,0"></path><path class="cls-4" d="M161.24,418.41l-2.09.33c0-.1,0-.2,0-.3h2.15l0,0"></path><path class="cls-5" d="M167.94,310.34a38.11,38.11,0,1,1,38.2-37.63,38.06,38.06,0,0,1-38.2,37.63M187,272.54a19,19,0,1,0-19.19,18.74A19,19,0,0,0,187,272.54"></path><path class="cls-6" d="M167.94,310.34a38.11,38.11,0,1,1,38.2-37.63A38.06,38.06,0,0,1,167.94,310.34ZM187,272.54a19,19,0,1,0-19.19,18.74A19,19,0,0,0,187,272.54Z"></path><path class="cls-5" d="M291.5,68.62a29.38,29.38,0,0,1-8.61,20.28,27.94,27.94,0,0,1-41-.88,30.39,30.39,0,0,1-.84-39.58c6.87-8.2,15.79-11.79,26.34-10,11,1.86,18.28,8.6,22.25,18.94a30.77,30.77,0,0,1,1.84,11.24M262.88,84.23A16.53,16.53,0,1,0,246.3,67.77a16.57,16.57,0,0,0,16.58,16.47"></path><path class="cls-6" d="M291.5,68.62a29.38,29.38,0,0,1-8.61,20.28,27.94,27.94,0,0,1-41-.88,30.39,30.39,0,0,1-.84-39.58c6.87-8.2,15.79-11.79,26.34-10,11,1.86,18.28,8.6,22.25,18.94A30.77,30.77,0,0,1,291.5,68.62ZM262.88,84.23A16.53,16.53,0,1,0,246.3,67.77,16.57,16.57,0,0,0,262.88,84.23Z"></path><path class="cls-1" d="M187,272.54a19,19,0,1,1-18.62-19.31A19,19,0,0,1,187,272.54"></path><path class="cls-2" d="M187,272.54a19,19,0,1,1-18.62-19.31A19,19,0,0,1,187,272.54Z"></path><path class="cls-1" d="M262.88,84.23A16.53,16.53,0,1,1,279.4,67.88a16.47,16.47,0,0,1-16.52,16.35"></path><path class="cls-2" d="M262.88,84.23A16.53,16.53,0,1,1,279.4,67.88,16.47,16.47,0,0,1,262.88,84.23Z"></path><path class="cls-5" d="M196.72,273.18a29.38,29.38,0,0,1-8.61,20.28,28,28,0,0,1-41-.88A30.39,30.39,0,0,1,146.3,253c6.87-8.2,15.79-11.79,26.34-10,11,1.86,18.28,8.6,22.25,18.94a30.77,30.77,0,0,1,1.84,11.24m-28.62,15.61a16.53,16.53,0,1,0-16.58-16.47,16.57,16.57,0,0,0,16.58,16.47"></path><path class="cls-6" d="M196.72,273.18a29.38,29.38,0,0,1-8.61,20.28,28,28,0,0,1-41-.88A30.39,30.39,0,0,1,146.3,253c6.87-8.2,15.79-11.79,26.34-10,11,1.86,18.28,8.6,22.25,18.94A30.77,30.77,0,0,1,196.72,273.18Zm-28.62,15.61a16.53,16.53,0,1,0-16.58-16.47A16.57,16.57,0,0,0,168.11,288.79Z"></path><rect class="cls-1" x="27.32" y="400.8" width="175.45" height="35.6"></rect><rect class="cls-2" x="27.32" y="400.8" width="175.45" height="35.6"></rect><path class="cls-4" d="M45.88,350.41c6.05,17.15,133.53,11.8,140.32-4.29"></path><path class="cls-3" d="M45.88,350.41c6.05,17.15,133.53,11.8,140.32-4.29"></path><path class="cls-4" d="M27.32,399.79c7.73,18.35,166.78,16.17,175.45-1"></path><path class="cls-3" d="M27.32,399.79c7.73,18.35,166.78,16.17,175.45-1"></path><polygon class="cls-1" points="380.36 293.11 380.36 436.41 336.38 436.41 336.38 380.66 302.78 380.66 302.78 436.41 258.8 436.41 258.8 293.11 302.78 293.11 302.78 345.81 336.38 345.81 336.38 293.11 380.36 293.11"></polygon><polygon class="cls-2" points="380.36 293.11 380.36 436.41 336.38 436.41 336.38 380.66 302.78 380.66 302.78 436.41 258.8 436.41 258.8 293.11 302.78 293.11 302.78 345.81 336.38 345.81 336.38 293.11 380.36 293.11"></polygon><path class="cls-1" d="M445.66,426.33v10.08H403.77v-106h41.89v33.88q0,9.44-1.16,25.8,6.61-14.58,11.23-23.28l12.49-23.59V330.38h41.89v106H468.23v-31q0-11.62,1.15-25.75-6.61,14.64-11.23,23.22Z"></path><path class="cls-2" d="M445.66,426.33v10.08H403.77v-106h41.89v33.88q0,9.44-1.16,25.8,6.61-14.58,11.23-23.28l12.49-23.59V330.38h41.89v106H468.23v-31q0-11.62,1.15-25.75-6.61,14.64-11.23,23.22Z"></path><polygon class="cls-1" points="663.71 371.53 701 436.41 659.09 436.41 636.41 392.52 628.96 394.63 628.96 436.41 587.38 436.41 587.38 394.63 579.93 392.52 557.04 436.41 518.18 436.41 553.58 381.19 519.02 330.38 558.83 330.38 583.08 367.12 587.38 367.44 587.38 330.38 628.96 330.38 628.96 367.44 633.26 367.12 657.41 330.38 698.79 330.38 663.71 371.53"></polygon><polygon class="cls-2" points="663.71 371.53 701 436.41 659.09 436.41 636.41 392.52 628.96 394.63 628.96 436.41 587.38 436.41 587.38 394.63 579.93 392.52 557.04 436.41 518.18 436.41 553.58 381.19 519.02 330.38 558.83 330.38 583.08 367.12 587.38 367.44 587.38 330.38 628.96 330.38 628.96 367.44 633.26 367.12 657.41 330.38 698.79 330.38 663.71 371.53"></polygon><polygon class="cls-1" points="707.59 436.41 707.59 293.11 826.11 293.11 826.11 436.41 783.38 436.41 783.38 323.87 750.32 323.87 750.32 436.41 707.59 436.41"></polygon><polygon class="cls-2" points="707.59 436.41 707.59 293.11 826.11 293.11 826.11 436.41 783.38 436.41 783.38 323.87 750.32 323.87 750.32 436.41 707.59 436.41"></polygon><path class="cls-1" d="M891.41,470.11H849.52V329.64H888v15.12q8.08-17.32,30.13-17.32,19.11,0,29.92,14.85t10.81,40.47q0,25.62-11.07,40.73T918.6,438.61q-17.85,0-27.19-13.65Zm0-72.75q0,7.14,3.25,11.08a10.08,10.08,0,0,0,8.08,3.94q7.56,0,10.39-7T916,383.92q0-16.69-3.25-23.46T903,353.68a12.38,12.38,0,0,0-7.72,3q-3.83,3-3.83,10Z"></path><path class="cls-2" d="M891.41,470.11H849.52V329.64H888v15.12q8.08-17.32,30.13-17.32,19.11,0,29.92,14.85t10.81,40.47q0,25.62-11.07,40.73T918.6,438.61q-17.85,0-27.19-13.65Zm0-72.75q0,7.14,3.25,11.08a10.08,10.08,0,0,0,8.08,3.94q7.56,0,10.39-7T916,383.92q0-16.69-3.25-23.46T903,353.68a12.38,12.38,0,0,0-7.72,3q-3.83,3-3.83,10Z"></path><path class="cls-1" d="M1027.78,438.61q-26.56,0-42.2-16.53t-15.64-38.79q0-23.94,16.33-39.89t42.46-16q26.35,0,42.36,15.75t16,39.47q0,23.94-16.22,39.95t-43.09,16m.63-25.41q9.76,0,11.91-10.13a101.6,101.6,0,0,0,2.15-21.15q0-15-3-21.63t-10.92-6.61q-7.25,0-10.6,6.82T1014.55,383q0,18.37,3.46,24.3a11.28,11.28,0,0,0,10.39,5.93"></path><path class="cls-2" d="M1027.78,438.61q-26.56,0-42.2-16.53t-15.64-38.79q0-23.94,16.33-39.89t42.46-16q26.35,0,42.36,15.75t16,39.47q0,23.94-16.22,39.95T1027.78,438.61Zm.63-25.41q9.76,0,11.91-10.13a101.6,101.6,0,0,0,2.15-21.15q0-15-3-21.63t-10.92-6.61q-7.25,0-10.6,6.82T1014.55,383q0,18.37,3.46,24.3A11.28,11.28,0,0,0,1028.41,413.21Z"></path><polygon class="cls-1" points="1103.37 436.41 1103.37 330.38 1162.18 330.38 1179.06 411.6 1195.94 330.38 1251.18 330.38 1251.18 436.41 1213.28 436.41 1213.28 355.15 1211.81 355.15 1194.48 436.41 1153.64 436.41 1136.33 355.15 1134.86 355.15 1134.86 436.41 1103.37 436.41"></polygon><polygon class="cls-2" points="1103.37 436.41 1103.37 330.38 1162.18 330.38 1179.06 411.6 1195.94 330.38 1251.18 330.38 1251.18 436.41 1213.28 436.41 1213.28 355.15 1211.81 355.15 1194.48 436.41 1153.64 436.41 1136.33 355.15 1134.86 355.15 1134.86 436.41 1103.37 436.41"></polygon><polygon class="cls-1" points="1274.8 436.41 1274.8 293.11 1393.32 293.11 1393.32 436.41 1350.59 436.41 1350.59 323.87 1317.52 323.87 1317.52 436.41 1274.8 436.41"></polygon><polygon class="cls-2" points="1274.8 436.41 1274.8 293.11 1393.32 293.11 1393.32 436.41 1350.59 436.41 1350.59 323.87 1317.52 323.87 1317.52 436.41 1274.8 436.41"></polygon><polygon class="cls-1" points="1400.96 436.41 1436.07 330.38 1480.48 330.38 1513.65 436.41 1470.65 436.41 1453.42 364.48 1452.01 364.48 1430.6 436.41 1400.96 436.41"></polygon><polygon class="cls-2" points="1400.96 436.41 1436.07 330.38 1480.48 330.38 1513.65 436.41 1470.65 436.41 1453.42 364.48 1452.01 364.48 1430.6 436.41 1400.96 436.41"></polygon><path class="cls-1" d="M1628.37,436.41h-39.89A70.81,70.81,0,0,1,1587,421.5q-11.34,17.11-34.33,17.11-18.9,0-28.29-9.66T1515,406.8q0-16.9,15.38-27.35t54.54-12.54V364.5q0-7-3.2-9.34t-9.4-2.31q-14.49,0-16.17,11.65l-38.21-3.57q8.19-33.49,55.75-33.49A102.54,102.54,0,0,1,1597.4,330q10.81,2.57,17.11,8t8.45,11.55q2.15,6.09,2.15,23.41v42.62q0,12.18,3.26,20.79m-43.46-50q-26.77,2.84-26.77,17.11,0,9.66,10.6,9.66a17.14,17.14,0,0,0,11.44-4q4.73-4,4.73-17.64Z"></path><path class="cls-2" d="M1628.37,436.41h-39.89A70.81,70.81,0,0,1,1587,421.5q-11.34,17.11-34.33,17.11-18.9,0-28.29-9.66T1515,406.8q0-16.9,15.38-27.35t54.54-12.54V364.5q0-7-3.2-9.34t-9.4-2.31q-14.49,0-16.17,11.65l-38.21-3.57q8.19-33.49,55.75-33.49A102.54,102.54,0,0,1,1597.4,330q10.81,2.57,17.11,8t8.45,11.55q2.15,6.09,2.15,23.41v42.62Q1625.12,427.8,1628.37,436.41Zm-43.46-50q-26.77,2.84-26.77,17.11,0,9.66,10.6,9.66a17.14,17.14,0,0,0,11.44-4q4.73-4,4.73-17.64Z"></path><path class="cls-1" d="M1711.2,393.36l35.69,3q-2.52,18.69-15.69,30.44t-35,11.76q-24.46,0-39.73-15.38t-15.28-39.42q0-24.57,15.17-40.47t39.42-15.9q21.52,0,35.07,12a45.88,45.88,0,0,1,15.54,30.39l-36.64,3q-2.31-16.9-12.81-16.9a10.29,10.29,0,0,0-9.82,6.14q-3.1,6.14-3.1,21.36,0,13.13,3.1,19.42t10.76,6.3q11.23,0,13.33-15.85"></path><path class="cls-2" d="M1711.2,393.36l35.69,3q-2.52,18.69-15.69,30.44t-35,11.76q-24.46,0-39.73-15.38t-15.28-39.42q0-24.57,15.17-40.47t39.42-15.9q21.52,0,35.07,12a45.88,45.88,0,0,1,15.54,30.39l-36.64,3q-2.31-16.9-12.81-16.9a10.29,10.29,0,0,0-9.82,6.14q-3.1,6.14-3.1,21.36,0,13.13,3.1,19.42t10.76,6.3Q1709.1,409.22,1711.2,393.36Z"></path><polygon class="cls-1" points="1777.23 436.41 1777.23 357.04 1748.15 357.04 1748.15 330.38 1846.84 330.38 1846.84 357.04 1819.12 357.04 1819.12 436.41 1777.23 436.41"></polygon><polygon class="cls-2" points="1777.23 436.41 1777.23 357.04 1748.15 357.04 1748.15 330.38 1846.84 330.38 1846.84 357.04 1819.12 357.04 1819.12 436.41 1777.23 436.41"></polygon><polygon class="cls-1" points="313.53 505.08 313.53 536.4 310.4 536.4 310.4 501.88 339.72 501.88 339.72 536.4 336.6 536.4 336.6 505.08 313.53 505.08"></polygon><path class="cls-1" d="M348.58,501.88h3.16v4.85a20.26,20.26,0,0,1,2-2.32,19.32,19.32,0,1,1,0,27.32,20.26,20.26,0,0,1-2-2.32v20.18h-3.16Zm3.16,12.9v6.61a15.88,15.88,0,1,0,0-6.61"></path><path class="cls-1" d="M412.67,498.75A19.33,19.33,0,1,1,399,504.41a18.57,18.57,0,0,1,13.64-5.66m-11.28,8.05a16,16,0,1,0,11.28-4.68,15.38,15.38,0,0,0-11.28,4.68"></path><polygon class="cls-1" points="438.72 501.88 441.85 501.88 441.85 531.13 463.93 501.88 467.34 501.88 467.34 536.4 464.18 536.4 464.18 506.9 441.85 536.37 441.85 536.4 438.72 536.4 438.72 501.88"></polygon><path class="cls-1" d="M492.51,519a16.05,16.05,0,0,1,2,1.27,7.9,7.9,0,0,1,0,13.36,15.44,15.44,0,0,1-17.67,0,8.19,8.19,0,0,1-3.66-6.68v-.35h3.38V527a6,6,0,0,0,2.67,4.87,11.27,11.27,0,0,0,12.89,0,5.82,5.82,0,0,0,0-9.76,11,11,0,0,0-3.55-1.69h-7.95v-3.13h9.07a10.73,10.73,0,0,0,2.42-1.37,5.77,5.77,0,0,0,0-9.7,10.4,10.4,0,0,0-6.45-2,10.54,10.54,0,0,0-6.43,2,6.31,6.31,0,0,0-2.64,4.18h-3.37a8.42,8.42,0,0,1,3.62-6,15.4,15.4,0,0,1,17.67,0q3.67,2.8,3.67,6.66a8.17,8.17,0,0,1-3.69,6.68,14,14,0,0,1-2,1.3"></path><path class="cls-1" d="M505,501.81H518v0a10.76,10.76,0,0,1,7.38,3,8.69,8.69,0,0,1,2.81,6.31v0a8.76,8.76,0,0,1-2.78,6.29,10.53,10.53,0,0,1-2.14,1.62,11.23,11.23,0,0,1,2.14,1.58,8.87,8.87,0,0,1,2.78,6.33v0a8.69,8.69,0,0,1-2.81,6.31,10.76,10.76,0,0,1-7.38,3v0H505Zm3.13,15.54h9.84v0a7.53,7.53,0,0,0,5.26-2,5.77,5.77,0,0,0,1.84-4.15,5.71,5.71,0,0,0-1.84-4.13,7.71,7.71,0,0,0-5.26-2v0h-9.84Zm0,3.52v12.38h9.84v0a7.7,7.7,0,0,0,5.26-2A5.71,5.71,0,0,0,525,527a5.77,5.77,0,0,0-1.84-4.15,7.54,7.54,0,0,0-5.26-2v0Z"></path><path class="cls-1" d="M553.47,498.75a19.33,19.33,0,1,1-13.64,5.66,18.57,18.57,0,0,1,13.64-5.66m-11.28,8.05a16,16,0,1,0,11.28-4.68,15.38,15.38,0,0,0-11.28,4.68"></path><path class="cls-1" d="M608.92,533h2.81v16.63h-3.16V536.4H581.07v13.18h-3.13V533h2.81a.75.75,0,0,1,.17-.14q7.49-7.45,7.49-22.08a48.16,48.16,0,0,0-.32-5.66q-.21-1.65-.53-3.2h21.34Zm-24,.28h20.88V505.08H591.34a54.27,54.27,0,0,1,.28,5.66q0,14.24-6.71,22.5"></path><path class="cls-1" d="M648.57,528.1l3.34,1.2a20,20,0,0,1-2.07,2.43,19.32,19.32,0,1,1,0-27.32,21.71,21.71,0,0,1,2.07,2.39L648.57,508q-.53-.63-1.12-1.27a16,16,0,1,0,0,22.57q.6-.6,1.13-1.23"></path><polygon class="cls-1" points="675.64 505.08 675.64 536.4 672.51 536.4 672.51 505.08 658.27 505.08 658.27 501.88 689.91 501.88 689.91 505.08 675.64 505.08"></polygon><path class="cls-1" d="M697.05,501.81h13.08v0a10.76,10.76,0,0,1,7.38,3,8.69,8.69,0,0,1,2.81,6.31v0a8.76,8.76,0,0,1-2.78,6.29,10.53,10.53,0,0,1-2.14,1.62,11.23,11.23,0,0,1,2.14,1.58,8.87,8.87,0,0,1,2.78,6.33v0a8.69,8.69,0,0,1-2.81,6.31,10.76,10.76,0,0,1-7.38,3v0H697.05Zm3.13,15.54H710v0a7.53,7.53,0,0,0,5.26-2,5.77,5.77,0,0,0,1.84-4.15,5.71,5.71,0,0,0-1.84-4.13,7.71,7.71,0,0,0-5.26-2v0h-9.84Zm0,3.52v12.38H710v0a7.7,7.7,0,0,0,5.26-2,5.71,5.71,0,0,0,1.84-4.13,5.77,5.77,0,0,0-1.84-4.15,7.54,7.54,0,0,0-5.26-2v0Z"></path><path class="cls-1" d="M735,529.93A15.22,15.22,0,0,0,745.57,534a15.38,15.38,0,0,0,11.29-4.68q.6-.6,1.13-1.23l3.34,1.2a19.89,19.89,0,0,1-2.07,2.43,19.29,19.29,0,1,1-1.69-28.86q.84.7,1.69,1.55.32.32.6.63l-2.39,2.39Zm20.18-24.65a16,16,0,0,0-22.32,22.32Z"></path><polygon class="cls-1" points="797 536.4 793.87 536.4 793.87 519.32 770.81 519.32 770.81 536.4 767.68 536.4 767.68 501.88 770.81 501.88 770.81 516.12 793.87 516.12 793.87 501.88 797 501.88 797 536.4"></polygon><polygon class="cls-1" points="832.68 536.4 829.56 536.4 829.56 519.32 806.49 519.32 806.49 536.4 803.37 536.4 803.37 501.88 806.49 501.88 806.49 516.12 829.56 516.12 829.56 501.88 832.68 501.88 832.68 536.4"></polygon><path class="cls-1" d="M858.31,498.75a19.33,19.33,0,1,1-13.64,5.66,18.57,18.57,0,0,1,13.64-5.66M847,506.8a16,16,0,1,0,11.28-4.68A15.38,15.38,0,0,0,847,506.8"></path><rect class="cls-1" x="885.17" y="514.01" width="20.74" height="3.16"></rect><polygon class="cls-1" points="913.9 501.88 917.02 501.88 917.02 531.13 939.1 501.88 942.51 501.88 942.51 536.4 939.35 536.4 939.35 506.9 917.02 536.37 917.02 536.4 913.9 536.4 913.9 501.88"></polygon><polygon class="cls-1" points="978.58 536.4 975.45 536.4 975.45 519.32 952.39 519.32 952.39 536.4 949.26 536.4 949.26 501.88 952.39 501.88 952.39 516.12 975.45 516.12 975.45 501.88 978.58 501.88 978.58 536.4"></polygon><polygon class="cls-1" points="1007.1 517.66 1020.63 501.88 1024.71 501.88 1016.16 512.42 1029.74 536.4 1025.83 536.4 1014.13 514.96 1007.1 522.73 1007.1 536.4 1003.9 536.4 1003.9 522.73 996.9 514.96 985.16 536.4 981.25 536.4 994.83 512.42 986.32 501.88 990.36 501.88 1003.9 517.66 1003.9 501.88 1007.1 501.88 1007.1 517.66"></polygon><polygon class="cls-1" points="1032.87 501.88 1035.99 501.88 1035.99 531.13 1058.07 501.88 1061.48 501.88 1061.48 536.4 1058.32 536.4 1058.32 506.9 1035.99 536.37 1035.99 536.4 1032.87 536.4 1032.87 501.88"></polygon><polygon class="cls-1" points="1097.55 536.4 1094.42 536.4 1094.42 519.32 1071.36 519.32 1071.36 536.4 1068.23 536.4 1068.23 501.88 1071.36 501.88 1071.36 516.12 1094.42 516.12 1094.42 501.88 1097.55 501.88 1097.55 536.4"></polygon><polygon class="cls-1" points="1104.3 501.88 1107.43 501.88 1107.43 531.13 1129.51 501.88 1132.92 501.88 1132.92 536.4 1129.76 536.4 1129.76 506.9 1107.43 536.37 1107.43 536.4 1104.3 536.4 1104.3 501.88"></polygon><path class="cls-1" d="M1141.74,501.88h3.16v4.85a20.25,20.25,0,0,1,2-2.32,19.32,19.32,0,1,1,0,27.32,20.25,20.25,0,0,1-2-2.32v20.18h-3.16Zm3.16,12.9v6.61a15.88,15.88,0,1,0,0-6.61"></path><polygon class="cls-1" points="1186.95 501.88 1190.08 501.88 1190.08 531.13 1212.16 501.88 1215.57 501.88 1215.57 536.4 1212.41 536.4 1212.41 506.9 1190.08 536.37 1190.08 536.4 1186.95 536.4 1186.95 501.88"></polygon><polygon class="cls-1" points="1251.64 536.4 1248.51 536.4 1248.51 519.32 1225.45 519.32 1225.45 536.4 1222.32 536.4 1222.32 501.88 1225.45 501.88 1225.45 516.12 1248.51 516.12 1248.51 501.88 1251.64 501.88 1251.64 536.4"></polygon><polygon class="cls-1" points="1261.91 505.08 1261.91 536.4 1258.78 536.4 1258.78 501.88 1276.15 501.88 1276.15 505.08 1261.91 505.08"></polygon><path class="cls-1" d="M1301.42,498.75a19.33,19.33,0,1,1-13.64,5.66,18.57,18.57,0,0,1,13.64-5.66m-11.28,8.05a16,16,0,1,0,11.28-4.68,15.38,15.38,0,0,0-11.28,4.68"></path><path class="cls-1" d="M1327.86,501.81h13.08v0a10.76,10.76,0,0,1,7.38,3,8.69,8.69,0,0,1,2.81,6.31v0a8.76,8.76,0,0,1-2.78,6.29,10.54,10.54,0,0,1-2.14,1.62,11.23,11.23,0,0,1,2.14,1.58,8.87,8.87,0,0,1,2.78,6.33v0a8.69,8.69,0,0,1-2.81,6.31,10.76,10.76,0,0,1-7.38,3v0h-13.08Zm3.13,15.54h9.84v0a7.53,7.53,0,0,0,5.26-2,5.77,5.77,0,0,0,1.84-4.15,5.71,5.71,0,0,0-1.84-4.13,7.71,7.71,0,0,0-5.26-2v0H1331Zm0,3.52v12.38h9.84v0a7.7,7.7,0,0,0,5.26-2,5.71,5.71,0,0,0,1.84-4.13,5.77,5.77,0,0,0-1.84-4.15,7.54,7.54,0,0,0-5.26-2v0Z"></path><path class="cls-1" d="M1396.45,536.4h-3.16v-7a23.5,23.5,0,0,1-2,2.36,19.32,19.32,0,1,1,0-27.32,23.5,23.5,0,0,1,2,2.36v-4.89h3.16Zm-3.16-15.19V515a15.8,15.8,0,1,0,0,6.26"></path><path class="cls-1" d="M1429.43,501.88V536.4h-3.13V522.2h-8.47l-.74,1.65-2,4.32-3.83,8.23h-3.48l6.68-14.31a11.91,11.91,0,0,1-6.68-2.92,9,9,0,0,1-3.24-7.1v0a9,9,0,0,1,3.24-7.14,12.21,12.21,0,0,1,7.73-3v0Zm-3.13,3.2h-10.69v0a9.22,9.22,0,0,0-5.66,2,6.11,6.11,0,0,0-2.25,5A6,6,0,0,0,1410,517a9.26,9.26,0,0,0,5.66,2v0h10.69Z"></path><polygon class="cls-1" points="1483.11 501.88 1474.6 512.42 1488.14 536.4 1484.27 536.4 1472.53 514.96 1465.5 522.76 1465.5 536.4 1462.3 536.4 1462.3 501.88 1465.5 501.88 1465.5 517.7 1479.03 501.88 1483.11 501.88"></polygon><path class="cls-1" d="M1510.15,498.75a19.33,19.33,0,1,1-13.64,5.66,18.57,18.57,0,0,1,13.64-5.66m-11.28,8.05a16,16,0,1,0,11.28-4.68,15.38,15.38,0,0,0-11.28,4.68"></path><polygon class="cls-1" points="1552.12 531.69 1565.03 501.88 1568.4 501.88 1568.4 536.4 1565.23 536.4 1565.23 509.68 1553.67 536.4 1550.54 536.4 1538.94 509.68 1538.94 536.4 1535.81 536.4 1535.81 501.88 1539.18 501.88 1552.12 531.69"></polygon><polygon class="cls-1" points="1578.28 505.08 1578.28 536.4 1575.15 536.4 1575.15 501.88 1604.47 501.88 1604.47 536.4 1601.34 536.4 1601.34 505.08 1578.28 505.08"></polygon><path class="cls-1" d="M1650.6,536.4h-3.16v-7a23.5,23.5,0,0,1-2,2.36,19.32,19.32,0,1,1,0-27.32,23.5,23.5,0,0,1,2,2.36v-4.89h3.16Zm-3.16-15.19V515a15.8,15.8,0,1,0,0,6.26"></path><polygon class="cls-1" points="1688.39 536.4 1685.26 536.4 1685.26 519.32 1662.2 519.32 1662.2 536.4 1659.07 536.4 1659.07 501.88 1662.2 501.88 1662.2 516.12 1685.26 516.12 1685.26 501.88 1688.39 501.88 1688.39 536.4"></polygon><polygon class="cls-1" points="1695.14 501.88 1698.27 501.88 1698.27 531.13 1720.35 501.88 1723.76 501.88 1723.76 536.4 1720.59 536.4 1720.59 506.9 1698.27 536.37 1698.27 536.4 1695.14 536.4 1695.14 501.88"></polygon><path class="cls-1" d="M1755,501.88V536.4h-3.13V522.2h-8.47l-.74,1.65-2,4.32-3.83,8.23h-3.48l6.68-14.31a11.91,11.91,0,0,1-6.68-2.92,9,9,0,0,1-3.24-7.1v0a9,9,0,0,1,3.24-7.14,12.21,12.21,0,0,1,7.73-3v0Zm-3.13,3.2h-10.69v0a9.22,9.22,0,0,0-5.66,2,6.11,6.11,0,0,0-2.25,5,6,6,0,0,0,2.25,4.92,9.26,9.26,0,0,0,5.66,2v0h10.69Z"></path><polyline class="cls-2" points="483.23 291.51 687.79 291.51 687.79 254.74 846.77 254.74 846.77 291.51 1254.26 291.51 1254.26 252.94 1413.24 252.94 1413.24 291.51 1850.68 291.51"></polyline><polyline class="cls-2" points="483.23 265.69 666 265.69 666 227.65 868.22 227.65 868.22 265.69 1232.56 266.84 1232.56 227.65 1435.03 227.65 1435.03 266.84 1850.68 266.84"></polyline></g></g></svg>